# xmcd CD database file generated by OrangeCD 4.2
#
# Track frame offsets:
#	150
#	16570
#	35897
#	62060
#	104140
#	119502
#	138435
#	153750
#	176360
#	197117
#	210497
#
# Disc length: 3162 seconds
#
# Revision: 3
# Processed by: cddbd v1.4PL0 Copyright (c) Steve Scherf et al.
# Submitted via: OrangeCD 4.2
#
DISCID=960c580b
DTITLE=Albert Collins - Collins Mix: The Best Of
DYEAR=1900
DGENRE=Blues
TTITLE0=There's Gotta Be A Change
TTITLE1=Honey Hush
TTITLE2=Mastercharge
TTITLE3=If Trouble Was Money
TTITLE4=Don't Lose Your Cool
TTITLE5=If You Love Me Like You Say
TTITLE6=Frosty
TTITLE7=Tired Man
TTITLE8=The Moon Is Full
TTITLE9=Collins Mix
TTITLE10=Same Old Thing
EXTD=
EXTT0=
EXTT1=
EXTT2=
EXTT3=
EXTT4=
EXTT5=
EXTT6=
EXTT7=
EXTT8=
EXTT9=
EXTT10=
PLAYORDER=
